<?xml version="1.0" encoding="iso-8859-1"?>
<!-- Generator: Adobe Illustrator 19.0.0, SVG Export Plug-In . SVG Version: 6.00 Build 0)  -->
<svg viewBox="0 0 723 755" xmlns="http://www.w3.org/2000/svg" version="1.1" xmlns:xlink="http://www.w3.org/1999/xlink"><g id="Artboard-Copy" transform="translate(-305.000000, -276.000000)"><g id="g14" transform="translate(666.499992, 652.760008) scale(1, -1) translate(-666.499992, -652.760008) translate(304.999992, 274.760008)"><path d="M113.366397,563.374786 C104.611731,587.433452 100.730397,601.504118 102.071731,606.325452 C104.109064,612.641451 109.874397,617.214785 119.569064,619.505451 C137.117063,624.033451 154.917063,619.364118 159.243729,609.173451 C162.378396,602.262785 161.882396,593.413452 158.505063,582.276119 C155.673063,571.338786 151.846396,563.134786 147.226396,557.117453 C139.422396,546.22812 130.17573,541.006786 120.978397,540.75612 C116.753064,540.45612 116.749064,554.077453 113.366397,563.374786 M86.6250645,99.1214642 C94.0263976,131.538797 99.4863975,167.584129 101.715731,207.406795 C83.3250646,186.470795 68.1690649,154.949463 56.4450652,112.289464 C48.2490654,82.0614646 47.4090655,58.8427985 53.0303986,41.6921323 C54.8223986,36.7707991 56.7117319,34.9814658 58.6997318,36.3241324 C69.4863982,45.8214655 79.226398,66.705465 86.6250645,99.1214642 M190.995729,247.94546 C191.841062,243.917461 190.053062,242.028127 186.721062,242.674794 C171.954396,244.113461 157.637063,242.618794 143.966396,237.644127 C142.68373,190.116129 139.909063,150.093463 136.189063,117.77613 C132.565063,88.5907978 126.80373,63.5841317 118.009064,41.8054656 C109.215731,20.0294662 99.0743975,7.05079982 88.6863978,3.27079992 C77.202398,-0.907866644 61.1450651,0.678799983 40.162399,7.28679982 C18.6330662,13.6947997 6.65039981,21.1001328 3.66639988,29.3014659 C-3.4962666,48.9881321 2.95573323,89.1094644 25.9637327,136.494797 C46.3890655,177.365462 72.3823982,209.736128 103.051731,232.662794 C103.499731,236.538794 103.345064,248.86946 103.490397,270.596127 C101.923731,382.10679 101.413064,441.369456 101.809064,447.086789 C102.251731,471.398788 104.038397,486.909454 106.770397,494.716121 C119.34773,499.292121 130.185063,500.138787 139.28373,497.258788 C149.874396,493.680121 157.782396,480.457455 156.642396,468.277455 C149.64373,414.33479 145.878396,356.614791 144.94773,296.208126 L144.410396,255.144127 C162.454396,261.710793 174.187729,263.50146 180.899729,260.372127 C186.119729,257.936127 189.353062,254.160127 190.995729,247.94546" id="path22"></path><path d="M348.508391,601.258918 C350.100391,596.884252 345.725725,595.292252 336.429725,591.909585 C326.437725,587.036252 318.187059,579.077586 310.929726,568.389586 C306.159059,561.080253 302.580392,557.300253 300.393726,556.504253 C297.112393,555.310919 294.479059,557.446919 292.288393,563.461586 C287.115059,577.678919 287.808393,592.794919 294.167059,609.350918 C300.528392,625.905584 308.777726,633.864251 319.268392,633.964251 C331.051058,633.918917 340.548391,623.132251 348.508391,601.258918 M319.940392,298.582926 C297.224393,281.026926 279.132393,262.678927 265.51506,242.241594 C250.653727,220.116261 239.076394,199.182928 231.324394,179.641596 C215.076395,140.909596 216.024395,126.393597 218.412395,119.83093 C220.203061,114.909597 228.604394,117.34693 243.069727,126.94693 C269.465727,144.60293 290.288393,170.757596 304.449726,205.012262 C307.731059,213.018928 310.463059,220.825594 312.996392,229.176261 C319.304392,254.386927 321.436392,277.453593 319.940392,298.582926 M312.643059,478.601588 C323.531059,470.798922 329.100392,462.298922 327.860392,453.797589 C329.452392,449.424255 309.968392,428.089589 294.064393,403.726923 C283.280393,387.416257 273.640393,369.666924 264.396393,350.821591 C280.55106,359.177591 293.179059,361.914924 302.079059,359.580258 C312.471059,356.549591 332.309725,344.573591 341.111058,332.293592 L341.509725,331.200258 C353.489724,337.417592 367.856391,343.885591 383.713724,349.654925 C386.449724,350.650925 387.791057,348.661591 387.74439,343.690925 C388.04039,339.464258 386.999057,337.228258 384.81239,336.432258 C374.421724,332.650925 362.441724,326.433592 348.671058,318.328259 C362.947058,287.605593 363.652391,248.229594 352.080391,200.053595 C344.280391,168.730929 331.013725,142.229596 313.169725,121.492264 C295.525726,100.212264 279.869726,87.0829312 266.197727,82.1082646 C251.432394,76.7349314 233.535061,78.273598 212.503061,86.7189312 C191.669729,94.618931 179.637729,103.864264 176.055062,113.70693 C167.100396,138.31493 183.843062,192.706929 229.919061,244.770927 C254.02306,272.118927 283.00306,296.286926 316.853725,317.276259 C314.813725,324.582925 312.276392,329.852258 309.592392,333.828258 C293.827059,351.624258 248.945727,303.090926 242.384394,300.702926 C237.463061,298.912259 232.640394,300.253592 226.621728,304.876259 C221.352394,309.149592 217.323061,315.116259 214.339061,323.317592 C213.343061,326.052259 215.876395,334.404258 221.392394,348.176258 C226.908394,361.949591 233.715061,375.573591 241.269727,388.848257 C234.757727,384.62159 228.743061,382.432257 221.931061,382.430924 C217.507061,382.678924 210.447061,385.064257 200.552395,390.132257 C191.204395,395.398923 185.336395,401.314923 183.147062,407.330923 C172.999062,435.218922 178.411062,466.290922 198.837728,500.352254 C213.447061,524.865587 232.336394,541.02692 255.85106,549.58292 C268.42706,554.160253 278.320393,555.901586 285.329726,555.356253 C289.755059,555.110919 295.721726,552.32692 303.627059,545.916253 C311.881726,540.249586 317.352392,535.428253 319.689725,530.70692 C322.772392,525.636254 322.476392,523.05092 319.343059,523.149587 C309.597726,522.700254 297.171059,519.413587 282.057726,513.294921 C262.57106,505.586921 246.268394,489.125588 232.603061,463.718922 C220.327061,441.294922 217.697728,416.186923 220.881728,407.43759 C222.573728,406.194923 225.853728,407.388256 231.471061,410.670923 C241.959061,417.58559 263.680393,437.873589 278.04306,457.961589 C281.424393,462.288255 292.208393,478.597588 297.725726,485.558921 C301.603059,485.112255 306.624392,483.224255 312.643059,478.601588" id="path26"></path><path d="M482.893721,573.993852 L496.319054,560.921853 C505.023054,552.323186 512.679054,548.299186 519.291054,548.847186 C531.223053,550.09252 541.364386,556.257853 549.71372,567.347186 C551.304386,569.784519 552.795053,569.088519 553.244386,566.155186 C554.039053,563.968519 554.288386,561.581853 553.444386,558.796519 C543.45772,533.489853 527.103053,518.869854 504.185721,515.483187 C505.831054,495.647188 502.804387,471.633855 494.556388,443.244522 C482.585721,402.97119 466.480388,379.153857 445.155056,371.393857 C439.140389,369.205857 428.999056,369.849857 414.92839,372.777857 C401.405723,375.908524 391.361724,379.684524 384.40039,385.200524 C369.731057,396.581857 360.827058,419.35119 357.687058,453.504522 C353.999058,494.271188 359.259058,530.861853 372.725724,563.628519 C385.199057,592.317852 403.639057,611.411185 428.245723,620.365851 C440.821722,624.941851 454.695055,622.560518 470.205722,613.963185 C482.537721,607.303185 488.952388,601.588518 489.252388,597.361852 C489.103054,596.069852 488.208388,595.124518 486.368388,595.075185 C465.040388,594.125852 446.897722,584.427185 432.483056,566.177853 C415.93239,545.293853 405.597723,519.24052 401.827057,488.764521 C398.055057,458.285855 399.651057,433.479189 406.815056,413.792523 C410.795056,402.85519 415.023056,396.344523 418.751056,394.604523 C427.700389,390.43119 444.699056,408.38319 453.788389,453.179189 C459.596388,483.159188 460.436388,506.376521 456.307055,522.831187 C455.063055,527.951187 452.327055,533.767187 447.951055,538.987187 C441.536389,544.701853 475.733721,580.057852 482.893721,573.993852" id="path30"></path><path d="M683.156783,723.034915 C684.748783,718.660249 680.374116,717.068249 671.078117,713.685582 C661.086117,708.812249 652.83545,700.853582 645.578117,690.165583 C640.807451,682.85625 637.228784,679.07625 635.042117,678.281583 C631.760784,677.086916 629.127451,679.222916 626.936784,685.238916 C621.763451,699.456249 622.456784,714.570915 628.815451,731.126915 C635.175451,747.682915 643.426117,755.640248 653.916784,755.740248 C665.69945,755.694914 675.196783,744.908248 683.156783,723.034915 M654.588784,420.358923 C631.872784,402.802923 613.780785,384.454924 600.163452,364.018924 C585.302119,341.892258 573.723452,320.958925 565.972786,301.417592 C549.724786,262.685593 550.672786,248.169594 553.060786,241.606927 C554.851453,236.685594 563.252786,239.122927 577.718119,248.722927 C604.112785,266.378927 624.938118,292.533593 639.098117,326.788258 C642.379451,334.794925 645.111451,342.601591 647.644784,350.952258 C653.952784,376.162924 656.084784,399.22959 654.588784,420.358923 M647.29145,600.377585 C658.17945,592.574919 663.748783,584.076252 662.508783,575.573586 C664.100783,571.200252 644.616784,549.865586 628.712784,525.50292 C617.928785,509.192254 608.288785,491.442921 599.044785,472.597588 C615.199451,480.953588 627.827451,483.690921 636.727451,481.356255 C647.11945,478.325588 666.958117,466.349588 675.75945,454.070922 L676.158116,452.977589 C688.138116,459.193589 702.504782,465.660255 718.363449,471.430922 C721.098115,472.425588 722.439449,470.437588 722.392782,465.466922 C722.688782,461.240255 721.647449,459.004255 719.460782,458.206922 C709.070116,454.426922 697.090116,448.209589 683.31945,440.104256 C697.595449,409.38159 698.300783,370.005591 686.728783,321.829592 C678.928783,290.506926 665.662117,264.005593 647.818117,243.269594 C630.174118,221.988261 614.516785,208.858928 600.846118,203.884262 C586.080785,198.510928 568.183452,200.049595 547.151453,208.494928 C526.31812,216.394928 514.28612,225.640261 510.703454,235.482927 C501.748787,260.090927 518.491454,314.482925 564.567453,366.546924 C588.671452,393.894923 617.650118,418.062923 651.502117,439.052256 C649.462117,446.358922 646.924784,451.628255 644.240784,455.604255 C628.475451,473.400255 583.592785,424.866923 577.032786,422.478923 C572.111452,420.688256 567.288786,422.029589 561.270119,426.652256 C556.000786,430.925589 551.971453,436.892256 548.987453,445.093589 C547.991453,447.828255 550.524786,456.180255 556.040786,469.952255 C561.556786,483.725588 568.363452,497.349588 575.918119,510.624254 C569.406119,506.397587 563.391453,504.208254 556.579453,504.206921 C552.155453,504.454921 545.095453,506.840254 535.199453,511.908254 C525.852787,517.17492 519.984787,523.09092 517.795454,529.10692 C507.647454,556.994919 513.059454,588.066919 533.48612,622.128251 C548.095453,646.641584 566.984786,662.802917 590.499452,671.358917 C603.074118,675.93625 612.967451,677.677583 619.978118,677.13225 C624.403451,676.886916 630.368784,674.102916 638.275451,667.69225 C646.530117,662.025583 651.99945,657.20425 654.338117,652.482917 C657.420784,647.41225 657.124784,644.826917 653.99145,644.925584 C644.246117,644.476251 631.819451,641.190917 616.706118,635.072251 C597.219452,627.362918 580.916785,610.901585 567.250119,585.494919 C554.975453,563.070919 552.346119,537.96292 555.530119,529.213587 C557.222119,527.97092 560.502119,529.165587 566.119452,532.448253 C576.607452,539.361587 598.328785,559.649586 612.691451,579.738919 C616.072785,584.064252 626.856784,600.373585 632.374117,607.334918 C636.251451,606.889585 641.272784,605.000252 647.29145,600.377585" id="path34"></path></g></g></svg>
